<svg version="1.1" viewBox="0.0 0.0 500.0 500.0" fill="none" stroke="none" stroke-linecap="square" stroke-miterlimit="10" xmlns:xlink="http://www.w3.org/1999/xlink" xmlns="http://www.w3.org/2000/svg"><clipPath id="p.0"><path d="m0 0l500.0 0l0 500.0l-500.0 0l0 -500.0z" clip-rule="nonzero"/></clipPath><g clip-path="url(#p.0)"><path fill="#000000" fill-opacity="0.0" d="m0 0l500.0 0l0 500.0l-500.0 0z" fill-rule="evenodd"/><path fill="#00ff00" fill-opacity="0.3" d="m376.12204 430.21652l-252.2572 0l126.12861 -180.21652l-126.12861 -180.21654l252.2572 0l-126.1286 180.21654z" fill-rule="evenodd"/><path stroke="#00ff00" stroke-width="24.0" stroke-linejoin="round" stroke-linecap="butt" d="m376.12204 430.21652l-252.2572 0l126.12861 -180.21652l-126.12861 -180.21654l252.2572 0l-126.1286 180.21654z" fill-rule="evenodd"/><path fill="#ff0000" fill-opacity="0.3" d="m786.2139 463.09055l-252.25726 0l126.12866 -180.21652l-126.12866 -180.21655l252.25726 0l-126.1286 180.21655z" fill-rule="evenodd"/><path stroke="#ff0000" stroke-width="24.0" stroke-linejoin="round" stroke-linecap="butt" d="m786.2139 463.09055l-252.25726 0l126.12866 -180.21652l-126.12866 -180.21655l252.25726 0l-126.1286 180.21655z" fill-rule="evenodd"/></g></svg>